<?xml version="1.0" encoding="UTF-8" standalone="no"?>
<!DOCTYPE svg PUBLIC "-//W3C//DTD SVG 1.1//EN"
 "http://www.w3.org/Graphics/SVG/1.1/DTD/svg11.dtd">
<!-- Generated by graphviz version 2.40.1 (20161225.0304)
 -->
<!-- Title: dependencies Pages: 1 -->
<svg width="514pt" height="284pt"
 viewBox="0.00 0.00 514.00 284.00" xmlns="http://www.w3.org/2000/svg" xmlns:xlink="http://www.w3.org/1999/xlink">
<g id="graph0" class="graph" transform="scale(1 1) rotate(0) translate(4 280)">
<title>dependencies</title>
<polygon fill="#ffffff" stroke="transparent" points="-4,4 -4,-280 510,-280 510,4 -4,4"/>
<text text-anchor="start" x="232.0091" y="-42.4" font-family="sans-serif" font-weight="bold" font-size="14.00" fill="#000000">Legend</text>
<polygon fill="#ffffb3" stroke="transparent" points="19,-10 19,-30 39,-30 39,-10 19,-10"/>
<text text-anchor="start" x="42.629" y="-15.4" font-family="sans-serif" font-size="14.00" fill="#000000"> &#160;Declarations</text>
<polygon fill="#8dd3c7" stroke="transparent" points="132,-10 132,-30 152,-30 152,-10 132,-10"/>
<text text-anchor="start" x="155.7251" y="-15.4" font-family="sans-serif" font-size="14.00" fill="#000000"> &#160;Module</text>
<polygon fill="#80b1d3" stroke="transparent" points="218,-10 218,-30 238,-30 238,-10 218,-10"/>
<text text-anchor="start" x="241.7812" y="-15.4" font-family="sans-serif" font-size="14.00" fill="#000000"> &#160;Bootstrap</text>
<polygon fill="#fdb462" stroke="transparent" points="315,-10 315,-30 335,-30 335,-10 315,-10"/>
<text text-anchor="start" x="338.6732" y="-15.4" font-family="sans-serif" font-size="14.00" fill="#000000"> &#160;Providers</text>
<polygon fill="#fb8072" stroke="transparent" points="411,-10 411,-30 431,-30 431,-10 411,-10"/>
<text text-anchor="start" x="434.7258" y="-15.4" font-family="sans-serif" font-size="14.00" fill="#000000"> &#160;Exports</text>
<g id="clust1" class="cluster">
<title>cluster_MatGoogleMapsAutocompleteModule</title>
<polygon fill="none" stroke="#000000" stroke-dasharray="1,5" points="8,-70 8,-268 498,-268 498,-70 8,-70"/>
</g>
<g id="clust2" class="cluster">
<title>cluster_MatGoogleMapsAutocompleteModule_declarations</title>
<polygon fill="none" stroke="#000000" points="16,-78 16,-130 490,-130 490,-78 16,-78"/>
</g>
<g id="clust6" class="cluster">
<title>cluster_MatGoogleMapsAutocompleteModule_exports</title>
<polygon fill="none" stroke="#000000" points="115,-208 115,-260 391,-260 391,-208 115,-208"/>
</g>
<!-- MatGoogleMapsAutocompleteComponent -->
<g id="node1" class="node">
<title>MatGoogleMapsAutocompleteComponent</title>
<polygon fill="#ffffb3" stroke="#000000" points="481.5111,-122 226.4889,-122 226.4889,-86 481.5111,-86 481.5111,-122"/>
<text text-anchor="middle" x="354" y="-99.8" font-family="Times,serif" font-size="14.00" fill="#000000">MatGoogleMapsAutocompleteComponent</text>
</g>
<!-- MatGoogleMapsAutocompleteModule -->
<g id="node3" class="node">
<title>MatGoogleMapsAutocompleteModule</title>
<polygon fill="#8dd3c7" stroke="#000000" points="369.7282,-187 366.7282,-191 345.7282,-191 342.7282,-187 136.2718,-187 136.2718,-151 369.7282,-151 369.7282,-187"/>
<text text-anchor="middle" x="253" y="-164.8" font-family="Times,serif" font-size="14.00" fill="#000000">MatGoogleMapsAutocompleteModule</text>
</g>
<!-- MatGoogleMapsAutocompleteComponent&#45;&gt;MatGoogleMapsAutocompleteModule -->
<g id="edge1" class="edge">
<title>MatGoogleMapsAutocompleteComponent&#45;&gt;MatGoogleMapsAutocompleteModule</title>
<path fill="none" stroke="#000000" d="M298.0544,-122.1061C298.0544,-122.1061 298.0544,-140.991 298.0544,-140.991"/>
<polygon fill="#000000" stroke="#000000" points="294.5544,-140.9909 298.0544,-150.991 301.5544,-140.991 294.5544,-140.9909"/>
</g>
<!-- MatValidateAddressDirective -->
<g id="node2" class="node">
<title>MatValidateAddressDirective</title>
<polygon fill="#ffffb3" stroke="#000000" points="207.9258,-122 24.0742,-122 24.0742,-86 207.9258,-86 207.9258,-122"/>
<text text-anchor="middle" x="116" y="-99.8" font-family="Times,serif" font-size="14.00" fill="#000000">MatValidateAddressDirective</text>
</g>
<!-- MatValidateAddressDirective&#45;&gt;MatGoogleMapsAutocompleteModule -->
<g id="edge2" class="edge">
<title>MatValidateAddressDirective&#45;&gt;MatGoogleMapsAutocompleteModule</title>
<path fill="none" stroke="#000000" d="M172.0494,-122.1061C172.0494,-122.1061 172.0494,-140.991 172.0494,-140.991"/>
<polygon fill="#000000" stroke="#000000" points="168.5495,-140.9909 172.0494,-150.991 175.5495,-140.991 168.5495,-140.9909"/>
</g>
<!-- MatGoogleMapsAutocompleteComponent  -->
<g id="node4" class="node">
<title>MatGoogleMapsAutocompleteComponent </title>
<polygon fill="#fb8072" stroke="#000000" points="382.5106,-252 123.4894,-252 123.4894,-216 382.5106,-216 382.5106,-252"/>
<text text-anchor="middle" x="253" y="-229.8" font-family="Times,serif" font-size="14.00" fill="#000000">MatGoogleMapsAutocompleteComponent </text>
</g>
<!-- MatGoogleMapsAutocompleteModule&#45;&gt;MatGoogleMapsAutocompleteComponent  -->
<g id="edge3" class="edge">
<title>MatGoogleMapsAutocompleteModule&#45;&gt;MatGoogleMapsAutocompleteComponent </title>
<path fill="none" stroke="#000000" stroke-dasharray="5,2" d="M253,-187.1061C253,-187.1061 253,-205.991 253,-205.991"/>
<polygon fill="#000000" stroke="#000000" points="249.5001,-205.9909 253,-215.991 256.5001,-205.991 249.5001,-205.9909"/>
</g>
</g>
</svg>
